<?xml version="1.0" encoding="UTF-8" standalone="no"?>
<!-- Created with Inkscape (http://www.inkscape.org/) -->

<svg
   xmlns:dc="http://purl.org/dc/elements/1.1/"
   xmlns:cc="http://creativecommons.org/ns#"
   xmlns:rdf="http://www.w3.org/1999/02/22-rdf-syntax-ns#"
   xmlns:svg="http://www.w3.org/2000/svg"
   xmlns="http://www.w3.org/2000/svg"
   xmlns:sodipodi="http://sodipodi.sourceforge.net/DTD/sodipodi-0.dtd"
   xmlns:inkscape="http://www.inkscape.org/namespaces/inkscape"
   width="297mm"
   height="210mm"
   viewBox="0 0 297 210"
   version="1.1"
   id="svg8"
   inkscape:version="0.92.4 5da689c313, 2019-01-14"
   sodipodi:docname="dragao.svg"
   inkscape:export-filename="/home/otavio/Tatau/Projetos/game/dragao.png"
   inkscape:export-xdpi="36.57"
   inkscape:export-ydpi="36.57">
  <defs
     id="defs2" />
  <sodipodi:namedview
     id="base"
     pagecolor="#ffffff"
     bordercolor="#666666"
     borderopacity="1.0"
     inkscape:pageopacity="0.0"
     inkscape:pageshadow="2"
     inkscape:zoom="0.7"
     inkscape:cx="669.06143"
     inkscape:cy="446.10682"
     inkscape:document-units="mm"
     inkscape:current-layer="layer1"
     showgrid="false"
     inkscape:window-width="1366"
     inkscape:window-height="696"
     inkscape:window-x="0"
     inkscape:window-y="0"
     inkscape:window-maximized="1" />
  <metadata
     id="metadata5">
    <rdf:RDF>
      <cc:Work
         rdf:about="">
        <dc:format>image/svg+xml</dc:format>
        <dc:type
           rdf:resource="http://purl.org/dc/dcmitype/StillImage" />
        <dc:title />
      </cc:Work>
    </rdf:RDF>
  </metadata>
  <g
     inkscape:label="Camada 1"
     inkscape:groupmode="layer"
     id="layer1"
     transform="translate(0,-87)">
    <path
       style="fill:#0000ff;stroke:#000000;stroke-width:0.26458332px;stroke-linecap:butt;stroke-linejoin:miter;stroke-opacity:1"
       d="m 197.68773,190.19503 c -15.63188,-11.77817 -22.96361,-36.83678 -24.8061,-55.49681 -3.77034,-7.31487 2.01683,-31.74298 -12.65323,-22.84202 -9.64149,10.96529 -17.77506,23.27859 -27.48078,34.07109 -6.65708,10.62306 -2.84477,24.23379 8.00485,30.11015 9.88057,9.67023 22.77883,20.46433 37.65934,16.65059 6.31962,-0.77703 15.91597,3.99595 19.27592,-2.493 z"
       id="path12"
       inkscape:connector-curvature="0"
       sodipodi:nodetypes="ccccccc" />
    <path
       style="fill:#000080;stroke:#000000;stroke-width:0.26458332px;stroke-linecap:butt;stroke-linejoin:miter;stroke-opacity:1"
       d="m 108.77889,107.63957 c -1.25444,0.19681 0.98025,0.37603 0,0 z m -0.26769,0.13384 v 0.53433 z m 0,0.53433 c -12.061519,5.80744 -18.322116,24.21414 -7.91375,34.32994 -0.99894,11.76966 1.05042,25.59831 11.41816,31.55083 -0.17105,10.3528 6.55042,19.53709 15.22849,21.93317 -3.05273,12.46561 -22.93507,6.45367 -32.667793,5.8128 -13.784504,-1.90442 -26.038586,-15.57386 -40.239798,-8.22269 -9.573142,4.45309 -22.100277,7.21123 -30.163259,-1.56456 -3.508033,-4.99316 -15.4583396,-10.48807 -10.62192,0.76954 6.116312,16.35666 27.146924,27.61793 43.164494,17.9219 14.632641,-4.34039 27.575656,10.54446 42.281682,5.42295 11.496184,-3.17245 19.369214,11.43743 6.372124,15.75649 -8.643096,9.33107 -24.117569,-4.68992 -29.901472,6.69228 -6.012886,5.95092 -1.769889,18.96036 -11.408885,17.65378 5.214548,12.72442 13.71763,-2.54029 20.023306,-7.97612 11.982995,-6.68345 29.883441,-1.79265 41.860021,-8.55823 12.77791,-6.07015 26.11856,-11.84054 40.49488,-12.06659 16.78804,-3.16736 33.39268,-8.05003 49.04665,-14.86921 10.43754,-4.33558 19.4492,-16.76796 30.93981,-7.70216 11.36638,5.76682 5.37739,-15.40727 17.70396,-9.19409 10.03264,8.53194 26.19455,2.56274 22.55236,-11.62848 -4.56234,-12.46169 -20.58096,-13.67019 -25.64669,-25.60853 -3.80297,-8.98871 -11.3354,-8.08854 -14.06069,0.33301 -9.06065,6.90908 -14.46512,-19.4945 -16.47557,-2.36438 0.5587,13.13701 -6.22236,26.09805 -20.00591,28.86483 -10.71501,4.56685 -24.64763,5.34178 -33.29872,-3.61464 -12.26154,-6.2253 -21.36685,-17.73814 -25.84422,-30.61991 -11.2326,-17.35832 -37.02539,-21.57216 -42.83726,-43.05193 z m 32.55461,32.00218 -0.10928,-0.12753 z m 90.85233,11.34918 -0.12606,0.10807 z m -86.57714,79.66439 -0.10807,0.12606 z m -82.265265,20.77547 -0.02429,-0.15244 z m -0.02429,-0.15244 0.02429,-0.38241 z m 9.11107,-8.40052 -0.0031,-0.25477 z m -0.0031,-0.25477 0.0031,-0.27957 z m 159.711685,-75.15045 0.0636,0.034 z"
       id="path10"
       inkscape:connector-curvature="0"
       sodipodi:nodetypes="ccccccccccccccccccccccccccccccccccccccccczczcccccccccccc" />
    <circle
       style="opacity:1;fill:#ffffff;fill-opacity:1;stroke:#ffffff;stroke-width:2.76499987;stroke-miterlimit:4;stroke-dasharray:none;stroke-opacity:1"
       id="path9"
       cx="250.22023"
       cy="174.9137"
       r="3.4017856" />
    <ellipse
       style="opacity:1;fill:#000000;fill-opacity:1;stroke:none;stroke-width:2.76499987;stroke-miterlimit:4;stroke-dasharray:none;stroke-opacity:1"
       id="path11"
       cx="251.54314"
       cy="176.4256"
       rx="3.96875"
       ry="4.1577382" />
  </g>
</svg>
